<?xml version="1.0" encoding="UTF-8"?>
<svg width="210px" height="34px" viewBox="0 0 210 34" version="1.1" xmlns="http://www.w3.org/2000/svg" xmlns:xlink="http://www.w3.org/1999/xlink">
    <!-- Generator: Sketch 52.5 (67469) - http://www.bohemiancoding.com/sketch -->
    <title>Group 11 Copy 3</title>
    <desc>Created with Sketch.</desc>
    <defs>
        <polygon id="path-1" points="0.0594800673 0.0185135795 15.7561591 0.0185135795 15.7561591 19.1012933 0.0594800673 19.1012933"></polygon>
        <polygon id="path-3" points="0.00393269636 0.0333911837 5.01609401 0.0333911837 5.01609401 1.36970669 0.00393269636 1.36970669"></polygon>
        <polygon id="path-5" points="0 0.000113586818 5.012168 0.000113586818 5.012168 1.33642909 0 1.33642909"></polygon>
    </defs>
    <g id="Page-1" stroke="none" stroke-width="1" fill="none" fill-rule="evenodd">
        <g id="6---Logo" transform="translate(-197.000000, -284.000000)">
            <g id="Group-11-Copy-3" transform="translate(197.000000, 284.000000)">
                <g id="Group-9" transform="translate(38.513842, 6.899606)">
                    <path d="M114.313662,9.96883372 C114.317986,8.6676559 114.028281,7.44364405 113.384345,6.30810696 C111.327473,2.67997617 106.398497,2.44581738 104.091833,5.86706356 C102.519909,8.1986731 102.517913,11.7443161 104.086511,14.0789192 C106.048921,16.9985866 110.039267,17.3701141 112.482634,14.843594 C113.791794,13.4898635 114.30069,11.818156 114.313662,9.96883372 M117.854316,9.99477745 C117.803759,12.9899478 116.806921,15.5796641 114.527199,17.5936293 C113.106614,18.8489067 111.434574,19.5364155 109.541014,19.7253391 C104.207914,20.2578508 100.116788,16.4261615 99.4868209,11.4995138 C99.1212804,8.63938389 99.674414,5.99312348 101.442912,3.68246849 C103.045436,1.58834386 105.19178,0.43783924 107.83538,0.218315375 C112.906714,-0.202771312 116.759025,3.32191717 117.639781,7.8135085 C117.781142,8.53328069 117.862631,9.25804205 117.854316,9.99477745" id="Fill-1" fill="#FF6900"></path>
                    <g id="Group-5" transform="translate(155.447065, 0.419313)">
                        <mask id="mask-2" fill="white">
                            <use xlink:href="#path-1"></use>
                        </mask>
                        <g id="Clip-4"></g>
                        <path d="M0.0599366674,1.93826268 C0.0363212213,0.614134643 0.932045114,0.00445699969 1.98143571,0.0187593121 C4.43710949,0.0520205038 6.89378111,0.0580075183 9.34912228,0.0220854313 C12.2924051,-0.0211541179 14.5478465,2.27952251 14.9044065,4.92478509 C15.2107421,7.19852015 14.3592556,8.97832652 12.6140409,10.3872706 C12.4783352,10.4966999 12.2844225,10.5648854 12.5508446,10.7624568 C13.7093319,11.6215934 14.1743234,12.8289747 14.2691178,14.2229512 C14.2970572,14.6337269 14.3629143,15.042507 14.4148018,15.4516196 C14.4646936,15.8454322 14.644304,16.1537634 14.9722594,16.3952397 C15.4113071,16.7178732 15.7592191,17.108027 15.7562256,17.7077263 C15.7522343,18.4447943 15.2396793,19.0079063 14.5039418,19.084407 C13.4365901,19.1951668 12.6220235,18.7554538 11.9920566,17.9302437 C11.3993421,17.1535948 11.1744965,16.2412403 11.0787043,15.2906355 C11.0407865,14.9157818 11.0308081,14.5372695 11.0158406,14.1600876 C10.9752619,13.1180144 10.3379775,12.3882639 9.30521751,12.2126448 C9.01418208,12.1630856 8.7214836,12.1374745 8.42479377,12.1391376 C7.420971,12.144792 6.08486893,12.1348136 5.08137878,12.1457898 C4.85387223,12.1484507 4.77703887,12.0892458 4.78169544,11.8527587 C4.79666298,11.1090385 4.79799342,10.364653 4.78103022,9.62126535 C4.77537581,9.37579776 4.86385058,9.32623858 5.08537012,9.32756903 C6.32501473,9.33588433 7.89793649,9.31160366 9.13691588,9.33987567 C9.75191531,9.35417798 10.1969501,9.11702569 10.5708059,8.65602557 C11.5081062,7.50019916 11.7076734,5.57437616 11.0028687,4.31909879 C10.5708059,3.5491022 9.95480858,3.12834812 9.02515828,3.14597656 C7.30156332,3.17890513 5.57730315,3.16460282 3.85337558,3.14763961 C3.53074202,3.1443135 3.46688053,3.24376446 3.46754576,3.5464413 C3.47685889,8.06896554 3.47453061,12.5911572 3.47320016,17.1133488 C3.47320016,17.2899657 3.47087188,17.4682457 3.44758904,17.642867 C3.28693749,18.8575657 2.34298487,19.39806 1.20678256,18.9304077 C0.414500971,18.6047806 0.073573756,18.0998757 0.0732411441,17.2404065 C0.0722433084,14.6666555 0.0729085322,12.0925719 0.0729085322,9.51848827 C0.0729085322,6.99163554 0.104839276,4.46445019 0.0599366674,1.93826268 Z" id="Fill-3" fill="#FF6900" mask="url(#mask-2)"></path>
                    </g>
                    <path d="M89.3871092,19.7787898 C87.632914,19.7275676 85.9013363,19.4505019 84.3576844,18.4546618 C83.8610948,18.1340239 83.3738184,17.7960902 82.9843298,17.3463989 C82.1278542,16.3568784 82.5319776,14.9356277 83.7473416,14.6479184 C84.238942,14.5315042 84.6793202,14.6559011 85.0721348,14.9705519 C85.8135268,15.5639316 86.5944996,16.1027629 87.5198259,16.355548 C88.9626964,16.7493605 90.4052343,16.8128894 91.8101871,16.1779332 C92.0024367,16.0911215 92.1850407,15.9786987 92.3629881,15.8642802 C93.8151717,14.9342972 93.4413159,13.2043827 92.3985775,12.4792887 C91.6142786,11.9338051 90.7168917,11.6943246 89.803872,11.4980835 C88.8715608,11.2978512 87.9169646,11.2090438 87.0006187,10.9269889 C85.784257,10.5528005 84.6816484,10.0013299 83.8527796,8.99484624 C82.3769805,7.20240062 82.161448,3.33977843 85.1522943,1.39499655 C86.1627693,0.738088018 87.2783497,0.37587364 88.4641112,0.248150664 C90.4188714,0.0376073207 92.2971309,0.326647077 94.0639654,1.21971007 C94.6560146,1.5190608 95.2174635,1.87229465 95.6751375,2.35824067 C96.1324789,2.84352145 96.2931305,3.42925104 96.0380171,4.05755495 C95.7948778,4.65592379 95.3408626,5.02711869 94.6663256,5.07102346 C94.3450225,5.0916454 94.0722807,4.97988779 93.8098499,4.79927952 C92.3403704,3.78880452 90.7391767,3.20407277 88.9281048,3.34742851 C88.0792792,3.41461611 87.2706996,3.6151811 86.6317521,4.23151098 C85.7223911,5.10860861 85.8394705,6.59970783 86.8845372,7.3104995 C87.7320323,7.88691595 88.7149006,8.11076377 89.6994318,8.30334607 C91.0538276,8.56777254 92.4088885,8.82421633 93.6827921,9.3816739 C95.5906541,10.2165298 96.4943607,11.6856767 96.5854963,13.7605098 C96.7105584,16.6096635 94.8083509,18.4277202 92.7162219,19.21468 C91.6538595,19.6144795 90.5555749,19.7887682 89.3871092,19.7787898" id="Fill-6" fill="#FF6900"></path>
                    <path d="M144.065667,5.73292117 C143.612982,6.80393155 143.187571,7.81274349 142.7595,8.82089021 C141.386478,12.0545433 140.014453,15.2891942 138.637108,18.5211842 C138.271567,19.3789903 137.621311,19.7638223 136.838342,19.6108208 C136.015793,19.4501692 135.571756,18.734721 135.78496,17.875917 C135.921664,17.3251117 136.189084,16.8202068 136.405614,16.2986713 C138.45018,11.377678 140.500399,6.45901299 142.550619,1.54034796 C143.046876,0.349929911 144.18574,-0.0335716295 145.162621,0.651276307 C145.46563,0.864147934 145.64391,1.16349866 145.782609,1.4941149 C147.136672,4.72311139 148.49007,7.95277311 149.844799,11.181437 C150.688635,13.1927412 151.534135,15.2033803 152.380299,17.2133541 C152.712579,18.0029748 152.612462,18.7107729 152.092257,19.2066973 C151.332904,19.9314587 150.193043,19.7355503 149.688804,18.7533473 C149.334239,18.0621797 149.05285,17.333427 148.741192,16.6206397 C148.585197,16.2640797 148.419889,15.9108458 148.288508,15.5449727 C148.202694,15.3061574 148.072975,15.2309871 147.82019,15.2326501 C145.966211,15.2436263 143.779953,15.2389698 141.925974,15.2383045 C141.53582,15.2383045 141.533492,15.2359763 141.684165,14.8877316 C142.04006,14.0655149 142.411588,13.2499505 142.747526,12.4194185 C142.856622,12.1496703 143.003304,12.0808196 143.276046,12.0851436 C144.232305,12.1011089 145.521509,12.0891349 146.478101,12.0927936 C146.681327,12.0937915 146.8014,12.0735021 146.69064,11.8180562 C145.822523,9.81739551 144.962056,7.81374133 144.065667,5.73292117" id="Fill-8" fill="#FF6900"></path>
                    <path d="M121.325456,9.96055168 C121.325456,7.36318522 121.341089,4.76581876 121.319136,2.16878492 C121.30816,0.888894261 122.520863,0.225666099 123.53034,0.523353764 C124.230821,0.730238377 124.685502,1.34557042 124.72475,2.14516947 C124.730404,2.26291409 124.726413,2.38132393 124.726413,2.49940116 C124.726413,6.96172264 124.731402,11.4243767 124.716767,15.8866982 C124.715437,16.2578931 124.822538,16.3264112 125.167789,16.3237503 C127.36336,16.3077849 129.559264,16.3127741 131.755168,16.3174306 C132.545454,16.3194263 133.155797,16.7135714 133.379312,17.3425406 C133.745518,18.3723071 133.083287,19.3997453 131.991322,19.4928766 C131.87391,19.502855 131.7555,19.5015245 131.637423,19.5015245 C128.816209,19.5021897 125.994329,19.4795721 123.173115,19.5138312 C122.130377,19.5264704 121.29419,18.8382964 121.312817,17.6458826 C121.353063,15.0847709 121.325123,12.5223287 121.325456,9.96055168" id="Fill-10" fill="#FF6900"></path>
                    <path d="M59.2538406,16.5366219 C59.2538406,11.4842469 59.2538406,6.52433797 59.2538406,1.56442906 C59.2541732,1.42273639 59.2498492,1.2807111 59.2604928,1.13935103 C59.2904279,0.741879794 59.6183832,0.446853023 60.0185154,0.450844366 C60.4143235,0.454503097 60.717333,0.727577481 60.7555834,1.12072477 C60.7658943,1.22649536 60.7622356,1.33326378 60.7622356,1.43936698 C60.7625682,7.09609785 60.7625682,12.7528287 60.7625682,18.4095596 C60.7625682,18.4684319 60.7632334,18.5276368 60.7622356,18.5868417 C60.7525899,19.0658029 60.5773034,19.3328903 60.1891453,19.459948 C59.8216091,19.5800209 59.429127,19.4406565 59.1663636,19.0874227 C58.088701,17.6385652 57.0127015,16.187712 55.9363693,14.737524 C53.2209256,11.0791256 50.5054819,7.42039447 47.7897056,3.761996 C47.7484617,3.70644981 47.7012308,3.65556019 47.5894732,3.52218281 L47.5894732,3.96821539 C47.5894732,8.83366251 47.588808,13.6991096 47.5914689,18.5645568 C47.5918015,18.8439508 47.5781644,19.1050511 47.3383512,19.3019574 C47.0978728,19.4998615 46.8391008,19.5610621 46.5480653,19.4433174 C46.2576951,19.3259054 46.1020327,19.1070468 46.0840717,18.7930611 C46.080413,18.7222148 46.0814108,18.6513685 46.0814108,18.5805221 C46.0814108,12.8649189 46.0830739,7.14898315 46.0780847,1.43337997 C46.0777521,1.05486761 46.1352939,0.723253526 46.5068214,0.536325629 C46.8936491,0.341747658 47.3014313,0.464481455 47.6137539,0.882574635 C48.3844157,1.91267374 49.1467622,2.94909247 49.9131001,3.98218509 C52.9581622,8.08728137 56.0032243,12.1917124 59.048619,16.2961435 C59.0948521,16.3586745 59.149733,16.4152185 59.2538406,16.5366219" id="Fill-12" fill="#425563"></path>
                    <path d="M6.82089659,19.7739004 C4.28173722,19.8214639 2.19326699,18.8136498 0.431089055,17.0474805 C0.0379417696,16.653668 0.0429309483,16.1693851 0.427762936,15.7985228 C0.786318583,15.4526064 1.23567728,15.458926 1.61385703,15.8647126 C2.69517837,17.0245303 3.9880409,17.7965226 5.56295832,18.0516359 C6.96591539,18.2788099 8.3339482,18.2009787 9.63645647,17.5523854 C11.9607485,16.3952286 11.9866923,13.4709046 9.97073144,12.115511 C8.98786323,11.4546112 7.88325905,11.0804227 6.77632659,10.7102257 C5.62449153,10.3253937 4.45835415,9.98080775 3.39765474,9.3681366 C1.62217233,8.34269406 0.75804657,6.81966409 0.919695961,4.76079632 C1.06637782,2.89184996 2.09813998,1.59333304 3.76186479,0.887530552 C6.54715698,-0.293574365 9.26127023,-0.0870223645 11.7977687,1.64222699 C12.1985661,1.91563399 12.5298475,2.27718314 12.7832978,2.69693938 C13.023111,3.09441062 12.9422863,3.46560552 12.5684305,3.75364744 C12.2275033,4.01641085 11.818058,3.9954563 11.5203704,3.67049446 C9.82504743,1.82017437 6.93398464,1.33223269 4.69583905,2.21332165 C2.98022679,2.88885646 2.22286945,4.41621038 2.75105718,6.1165225 C2.94896127,6.75480477 3.36672183,7.22278973 3.91453366,7.58400628 C5.02978142,8.32007645 6.27441521,8.75812634 7.53800788,9.15193885 C8.63063803,9.49286607 9.72459863,9.8371194 10.71678,10.4218512 C12.5887198,11.5244597 13.3064964,13.1386253 13.1162423,15.1808625 C12.8993794,17.5078154 11.3593862,18.7288338 9.29486403,19.426321 C8.49593021,19.6960692 7.66107429,19.7805527 6.82089659,19.7739004" id="Fill-14" fill="#425563"></path>
                    <path d="M38.6453884,9.98636237 C38.6453884,7.15284145 38.6450558,4.31898792 38.645721,1.485467 C38.6460537,0.92069196 38.8153531,0.637639219 39.2231353,0.503596616 C39.7696167,0.323986181 40.2931479,0.647284964 40.3703138,1.21804701 C40.3876096,1.34576999 40.38129,1.4771517 40.38129,1.60687034 C40.3816226,7.1794504 40.3816226,12.7520305 40.3822879,18.3249431 C40.3822879,18.5138667 40.3849488,18.7024577 40.3254112,18.8853942 C40.1913686,19.2951721 39.8294869,19.5359831 39.4007501,19.4977327 C38.9803286,19.4601476 38.7069216,19.1847449 38.6547016,18.7343884 C38.639734,18.6060002 38.645721,18.4749511 38.645721,18.3452325 C38.6453884,15.5589424 38.6453884,12.7726524 38.6453884,9.98636237" id="Fill-16" fill="#425563"></path>
                    <path d="M77.7340001,17.8906185 C77.6285622,17.881638 77.5214611,17.8866271 77.4153579,17.8866271 C74.6164286,17.8866271 71.817832,17.8823032 69.0192353,17.8929468 C68.7238759,17.8942772 68.6191032,17.8413919 68.6197684,17.513104 C68.6254228,15.1761726 68.620101,12.8389087 68.6204336,10.5019774 C69.7509815,10.4926642 71.9971098,10.4993165 72.8758705,10.4993165 C73.8437712,10.4989839 74.8113392,10.503973 75.7789073,10.4973208 C76.3024385,10.4936621 76.6387091,10.1776807 76.6387091,9.71302189 C76.6387091,9.23971514 76.3107538,8.88947479 75.8098402,8.88714651 C73.9615158,8.87816598 70.6503642,8.884153 68.6204336,8.88016165 C68.6197684,6.72716472 68.6250902,4.57450039 68.6207662,2.42150345 C68.6204336,2.11483526 68.715228,2.05829124 68.998946,2.05962169 C71.8095167,2.06993266 74.6200874,2.06594131 77.4303255,2.0656087 C77.5603767,2.0656087 77.6917584,2.07325877 77.819814,2.0572934 C78.3433452,1.99210147 78.6430285,1.52744262 78.4910249,1.02752691 C78.3699541,0.630055667 78.0805818,0.449114784 77.5500658,0.449114784 C74.3500065,0.448116949 71.1496146,0.448116949 67.9495554,0.448782172 C67.1732392,0.448782172 66.9194563,0.70688902 66.9194563,1.4961771 C66.9187911,4.31838921 66.9191237,7.14093394 66.9191237,9.96314606 C66.9191237,12.8325891 66.9181258,15.7023647 66.9201215,18.5718077 C66.9204541,19.1751657 67.1971872,19.4977993 67.7423382,19.4984645 C71.0608073,19.5041189 74.3789437,19.5037863 77.6974128,19.4994623 C78.1966633,19.4987971 78.5309383,19.1748331 78.5352623,18.725807 C78.5395862,18.2924137 78.1950003,17.9308645 77.7340001,17.8906185" id="Fill-18" fill="#425563"></path>
                    <path d="M19.7600077,1.43673935 C19.7590099,0.903229835 19.5042292,0.555982993 19.0628532,0.465845164 C18.4541734,0.341780919 18.0270997,0.771848127 18.026767,1.51789666 C18.0261018,7.15067947 18.0261018,12.7837949 18.0277649,18.4169103 C18.0277649,18.5576052 18.0357476,18.7006283 18.0613587,18.8389948 C18.1335355,19.2351356 18.42191,19.4809358 18.8203791,19.4992295 C19.383491,19.5255058 19.7593425,19.1163932 19.7600077,18.4608151 L19.7600077,1.43673935 Z" id="Fill-94" fill="#425563"></path>
                    <path d="M32.512648,1.21911137 C32.4627562,0.752456853 32.1481053,0.46042359 31.6934248,0.451110456 C31.2487227,0.442129934 30.8718734,0.761769986 30.815662,1.20647212 C30.79504,1.37011718 30.7897183,1.53609053 30.7897183,1.70106604 C30.7880552,4.00373834 30.7860595,6.30641064 30.7927118,8.60941555 C30.793377,8.85022658 30.759118,8.96763859 30.471076,8.96697337 C27.5397672,8.95899068 24.2755139,8.96098635 21.344205,8.96531031 C21.2184777,8.96564292 21.1170311,9.06708955 21.1170311,9.19281686 L21.1170311,10.2777969 C21.1170311,10.4307984 21.2407627,10.5548627 21.3937642,10.5555279 C24.2771769,10.563178 27.4935342,10.5638432 30.3769469,10.5512039 C30.736833,10.5498735 30.7973683,10.6682833 30.7957053,10.9935778 C30.7827334,13.4263013 30.7880552,15.8590249 30.7897183,18.2917485 C30.7900509,18.4394281 30.7923791,18.5891035 30.8106728,18.7354528 C30.8688799,19.1971181 31.2929601,19.5476911 31.7556233,19.4964688 C32.2252713,19.4439161 32.518635,19.055758 32.5189676,18.4720241 C32.5199654,15.637838 32.5196328,12.8036518 32.5196328,9.96946568 C32.5196328,7.1705364 32.5196328,4.37193973 32.5193002,1.57301045 C32.5193002,1.45493322 32.5252872,1.33585815 32.512648,1.21911137" id="Fill-96" fill="#425563"></path>
                </g>
                <g id="Group-75-Copy">
                    <path d="M16.7206678,33.4412955 C16.3512753,33.4412955 16.0518419,33.1421613 16.0518419,32.7731378 L16.0518419,29.1023125 C16.0518419,28.733289 16.3512753,28.4341548 16.7206678,28.4341548 C17.0900604,28.4341548 17.3894937,28.733289 17.3894937,29.1023125 L17.3894937,32.7731378 C17.3894937,33.1421613 17.0900604,33.4412955 16.7206678,33.4412955" id="Fill-1" fill="#425563"></path>
                    <path d="M21.0484731,32.8684338 C20.6916879,32.9639135 20.3249372,32.7524082 20.229362,32.395946 L19.2782916,28.8502333 C19.1827163,28.4938045 19.3944332,28.1274202 19.7512518,28.0319071 C20.108037,27.9363939 20.4747877,28.1478993 20.5703963,28.5043614 L21.5214333,32.0501076 C21.6170086,32.4065363 21.4052917,32.7729206 21.0484731,32.8684338" id="Fill-3" fill="#425563"></path>
                    <path d="M25.0641072,31.1986274 C24.7442412,31.3831057 24.3351539,31.2736281 24.150491,30.9540817 L22.3132262,27.7750205 C22.12853,27.4554406 22.2381505,27.0468287 22.55805,26.8622836 C22.877916,26.6778052 23.2869699,26.7872829 23.4716662,27.1068627 L25.3088975,30.2859239 C25.4936272,30.6054703 25.3839732,31.0141156 25.0641072,31.1986274" id="Fill-5" fill="#425563"></path>
                    <path d="M28.5326284,28.5375121 C28.2714184,28.7984611 27.8479513,28.7984611 27.5867748,28.5375121 L24.9885199,25.9418528 C24.7273099,25.6809038 24.7273099,25.2578597 24.9885199,24.9969441 C25.2496964,24.7359951 25.6731635,24.7359951 25.9343735,24.9969441 L28.5326284,27.5926034 C28.7938383,27.853519 28.7938383,28.2765631 28.5326284,28.5375121" id="Fill-7" fill="#425563"></path>
                    <path d="M31.2031298,25.0904662 C31.018467,25.4100126 30.6093796,25.5195237 30.2895136,25.3350119 L27.1072734,23.499616 C26.7874074,23.3150708 26.6777868,22.9064589 26.8624831,22.5869125 C27.0471794,22.2672992 27.4562333,22.1578216 27.7760993,22.3422999 L30.9583395,24.1777293 C31.2782055,24.362241 31.3877927,24.7708863 31.2031298,25.0904662" id="Fill-9" fill="#425563"></path>
                    <path d="M32.8615773,21.0657278 C32.7659686,21.4221565 32.3992514,21.6336953 32.0424328,21.5381821 L28.4931409,20.5880952 C28.1363557,20.4926154 27.9246054,20.1262311 28.0202141,19.769769 C28.1158227,19.4133402 28.4825734,19.2018015 28.8393586,19.2973146 L32.3886171,20.2474015 C32.7454357,20.3428813 32.9571525,20.7092656 32.8615773,21.0657278" id="Fill-11" fill="#425563"></path>
                    <g id="Group-15" transform="translate(28.425101, 16.035786)">
                        <mask id="mask-4" fill="white">
                            <use xlink:href="#path-3"></use>
                        </mask>
                        <g id="Clip-14"></g>
                        <path d="M5.01611407,0.701548937 C5.01611407,1.07053906 4.71664727,1.36970669 4.34728816,1.36970669 L0.672758607,1.36970669 C0.303399498,1.36970669 0.00393269636,1.07053906 0.00393269636,0.701548937 C0.00393269636,0.33252541 0.303399498,0.0333911837 0.672758607,0.0333911837 L4.34728816,0.0333911837 C4.71664727,0.0333911837 5.01611407,0.33252541 5.01611407,0.701548937" id="Fill-13" fill="#425563" mask="url(#mask-4)"></path>
                    </g>
                    <g id="Group-18" transform="translate(0.000000, 16.069194)">
                        <mask id="mask-6" fill="white">
                            <use xlink:href="#path-5"></use>
                        </mask>
                        <g id="Clip-17"></g>
                        <path d="M-1.33765182e-05,0.66827134 C-1.33765182e-05,0.299247813 0.299453425,0.000113586818 0.668812534,0.000113586818 L4.34334209,0.000113586818 C4.7127012,0.000113586818 5.012168,0.299247813 5.012168,0.66827134 C5.012168,1.03726146 4.7127012,1.33642909 4.34334209,1.33642909 L0.668812534,1.33642909 C0.299453425,1.33642909 -1.33765182e-05,1.03726146 -1.33765182e-05,0.66827134" id="Fill-16" fill="#425563" mask="url(#mask-6)"></path>
                    </g>
                    <path d="M0.573451336,21.0609638 C0.477842672,20.7045016 0.689592955,20.3381173 1.04637814,20.2426376 L4.5956366,19.2925507 C4.95245522,19.1970375 5.31920591,19.4085763 5.41478113,19.765005 C5.51042324,20.1214672 5.29867296,20.4878515 4.94188777,20.5833312 L1.39256243,21.5334181 C1.03577725,21.6289313 0.669026559,21.4173925 0.573451336,21.0609638" id="Fill-19" fill="#425563"></path>
                    <path d="M2.24493089,25.0725529 C2.06023462,24.7530064 2.16982174,24.3443611 2.48972117,24.1598494 L5.67196142,22.32442 C5.99182741,22.1399417 6.40088134,22.2494193 6.58557761,22.5689992 C6.77024045,22.888579 6.66065332,23.2971909 6.34078733,23.4817361 L3.15854709,25.317132 C2.83864765,25.5016438 2.42959372,25.3921327 2.24493089,25.0725529" id="Fill-21" fill="#425563"></path>
                    <path d="M16.7205374,0.0333911837 C17.08993,0.0333911837 17.3893633,0.33252541 17.3893633,0.701548937 L17.3893633,4.37237422 C17.3893633,4.74139775 17.08993,5.04053198 16.7205374,5.04053198 C16.3511449,5.04053198 16.0517115,4.74139775 16.0517115,4.37237422 L16.0517115,0.701548937 C16.0517115,0.33252541 16.3511449,0.0333911837 16.7205374,0.0333911837" id="Fill-23" fill="#425563"></path>
                    <path d="M4.90857355,4.93715795 C5.16978351,4.67620894 5.59325064,4.67620894 5.85442716,4.93715795 L8.45268206,7.53281719 C8.71389202,7.7937662 8.71389202,8.21681028 8.45268206,8.47772589 C8.19150554,8.7386749 7.76803841,8.7386749 7.50682845,8.47772589 L4.90857355,5.88206665 C4.6473636,5.62115104 4.6473636,5.19810696 4.90857355,4.93715795" id="Fill-25" fill="#425563"></path>
                    <path d="M2.23807208,8.38423725 C2.42273491,8.0646574 2.83182228,7.95514634 3.15168828,8.13965811 L6.33392852,9.97508746 C6.65379451,10.1595992 6.76341508,10.5682445 6.5787188,10.8877909 C6.39402253,11.2073708 5.9849686,11.3168819 5.66510261,11.1323701 L2.48286236,9.29694074 C2.16299637,9.11242898 2.05340925,8.7037837 2.23807208,8.38423725" id="Fill-27" fill="#425563"></path>
                    <path d="M0.579624599,12.408959 C0.675233263,12.0525302 1.04195051,11.8409915 1.39876913,11.9365046 L4.94806104,12.8865915 C5.30487966,12.9821047 5.5165965,13.348489 5.42098784,13.7049178 C5.32537917,14.0613465 4.95862849,14.2728518 4.6018433,14.1773721 L1.05258484,13.2272852 C0.695766219,13.131772 0.484049377,12.7653877 0.579624599,12.408959" id="Fill-29" fill="#425563"></path>
                    <path d="M32.8677506,12.4137229 C32.9633592,12.7701517 32.751609,13.136536 32.3948238,13.2320491 L28.8455653,14.1821361 C28.4887467,14.2776158 28.121996,14.0661105 28.0264208,13.7096817 C27.9307787,13.353253 28.142529,12.9868687 28.4993141,12.8913555 L32.0486395,11.9412686 C32.4054247,11.8457554 32.7721754,12.0572942 32.8677506,12.4137229" id="Fill-31" fill="#425563"></path>
                    <path d="M31.1962744,8.40211715 C31.3809706,8.72169701 31.2713835,9.13034229 30.9514841,9.31482064 L27.7692438,11.15025 C27.4493778,11.3347618 27.0403574,11.2252507 26.8556276,10.9056708 C26.6709648,10.5861244 26.7805519,10.1774791 27.1004179,9.99296736 L30.2826582,8.15757142 C30.6025576,7.97305965 31.0116115,8.0825373 31.1962744,8.40211715" id="Fill-33" fill="#425563"></path>
                    <path d="M28.5325314,4.93706107 C28.7937413,5.19801008 28.7937413,5.62105416 28.5325314,5.88196976 L25.9342765,8.477629 C25.6730665,8.73857801 25.2495994,8.73857801 24.9884229,8.477629 C24.7272129,8.2167134 24.7272129,7.79363591 24.9884229,7.53272031 L27.5866778,4.93706107 C27.8478543,4.67611206 28.2713214,4.67611206 28.5325314,4.93706107" id="Fill-35" fill="#425563"></path>
                    <path d="M25.0820017,2.26922409 C25.4019011,2.45373585 25.5115217,2.86238113 25.3268254,3.18192758 L23.4895606,6.36098876 C23.3048643,6.68053521 22.8958438,6.79004626 22.5759444,6.6055345 C22.256045,6.42102273 22.1464578,6.01237745 22.3311207,5.69283101 L24.1683855,2.51376983 C24.3530817,2.19422338 24.7621357,2.08471232 25.0820017,2.26922409" id="Fill-37" fill="#425563"></path>
                    <path d="M21.0532418,0.612433397 C21.4100605,0.707946547 21.6217773,1.07433085 21.5262021,1.4307596 L20.5751651,4.97650576 C20.4795564,5.33293451 20.1128057,5.54447326 19.7560205,5.44896011 C19.3992019,5.35348037 19.1874851,4.98709606 19.2830603,4.6306339 L20.2341307,1.08488774 C20.329706,0.72845899 20.6964566,0.516920246 21.0532418,0.612433397" id="Fill-39" fill="#425563"></path>
                    <path d="M16.7206678,26.4345123 C16.3512753,26.4345123 16.0518419,26.135378 16.0518419,25.7663545 L16.0518419,23.7618813 C16.0518419,23.3928577 16.3512753,23.0937235 16.7206678,23.0937235 C17.0900604,23.0937235 17.3894937,23.3928577 17.3894937,23.7618813 L17.3894937,25.7663545 C17.3894937,26.135378 17.0900604,26.4345123 16.7206678,26.4345123" id="Fill-41" fill="#FF6900"></path>
                    <path d="M23.0753601,16.7237814 C23.0753601,16.3547579 23.3747934,16.0556237 23.744186,16.0556237 L25.7506637,16.0556237 C26.1200563,16.0556237 26.4194896,16.3547579 26.4194896,16.7237814 C26.4194896,17.092805 26.1200563,17.3919392 25.7506637,17.3919392 L23.744186,17.3919392 C23.3747934,17.3919392 23.0753601,17.092805 23.0753601,16.7237814" id="Fill-43" fill="#FF6900"></path>
                    <path d="M22.2191793,19.9087525 C22.4038421,19.5891726 22.8129295,19.4796616 23.1327955,19.6642067 L24.8704721,20.6664434 C25.1903715,20.8509217 25.2999586,21.259567 25.1152958,21.5791469 C24.9305661,21.8986933 24.5215456,22.0082044 24.2016462,21.8236926 L22.4639696,20.821456 C22.1441036,20.6369776 22.034483,20.2282989 22.2191793,19.9087525" id="Fill-45" fill="#FF6900"></path>
                    <path d="M19.8896219,22.2451197 C20.2095213,22.0606414 20.6185752,22.170119 20.8032715,22.4896655 L21.8065104,24.2256061 C21.9912066,24.545186 21.8815861,24.9538313 21.5616866,25.138343 C21.2418206,25.3228548 20.8327667,25.2133437 20.6480704,24.8937639 L19.6448316,23.1578232 C19.4601353,22.8382768 19.5697559,22.4296315 19.8896219,22.2451197" id="Fill-47" fill="#FF6900"></path>
                    <path d="M12.3927288,0.606252937 C12.749514,0.510739787 13.1162647,0.722278531 13.2118399,1.07870728 L14.1629103,4.62445344 C14.2584856,4.9809156 14.0467687,5.3472665 13.6899501,5.44277965 C13.3331649,5.5382928 12.9664142,5.32675406 12.8708056,4.9703253 L11.9197686,1.42457915 C11.8241933,1.06815039 12.0359102,0.701766088 12.3927288,0.606252937" id="Fill-49" fill="#425563"></path>
                    <path d="M8.37709804,2.27605934 C8.69696403,2.09158099 9.1060514,2.20105863 9.29071423,2.52063849 L11.127979,5.69966626 C11.3126753,6.01921271 11.2030882,6.42785799 10.8831553,6.61236975 C10.5632893,6.79688152 10.1542354,6.68737046 9.96953909,6.36782401 L8.13230776,3.18879624 C7.94757804,2.86921639 8.05723205,2.46057111 8.37709804,2.27605934" id="Fill-51" fill="#425563"></path>
                    <path d="M4.90867388,28.5376457 C4.64746392,28.2766967 4.64746392,27.8536192 4.90867388,27.592737 L7.50692878,24.9970778 C7.76813874,24.7361288 8.19160586,24.7361288 8.45278238,24.9970778 C8.71399234,25.2579934 8.71399234,25.6810375 8.45278238,25.9419865 L5.85452748,28.5376457 C5.59335096,28.7985947 5.16988384,28.7985947 4.90867388,28.5376457" id="Fill-53" fill="#425563"></path>
                    <path d="M16.7147889,7.04660213 C17.0841814,7.04660213 17.3836148,7.34573636 17.3836148,7.71475989 L17.3836148,9.71923315 C17.3836148,10.0882233 17.0841814,10.3873909 16.7147889,10.3873909 C16.3453963,10.3873909 16.0459629,10.0882233 16.0459629,9.71923315 L16.0459629,7.71475989 C16.0459629,7.34573636 16.3453963,7.04660213 16.7147889,7.04660213" id="Fill-55" fill="#FF6900"></path>
                    <path d="M11.2162741,13.5723619 C11.0316112,13.8919418 10.6225239,14.0014528 10.3026579,13.8169411 L8.56498127,12.8147045 C8.24508184,12.6301927 8.13549471,12.2215474 8.32015755,11.9019676 C8.50485382,11.5824211 8.91390775,11.4729101 9.23380718,11.6574218 L10.9714838,12.6596584 C11.2913498,12.8441702 11.4009369,13.2528155 11.2162741,13.5723619" id="Fill-57" fill="#FF6900"></path>
                    <path d="M13.5458014,11.2359947 C13.2259354,11.4205064 12.8168815,11.3109954 12.6321852,10.9914155 L11.6289463,9.25550828 C11.4442501,8.93592843 11.5538706,8.52728315 11.8737366,8.34277138 C12.1936361,8.15829303 12.60269,8.26777067 12.7873863,8.58735053 L13.7906251,10.3232578 C13.9753214,10.6428376 13.8657008,11.0514829 13.5458014,11.2359947" id="Fill-59" fill="#FF6900"></path>
                    <path d="M19.8804757,11.2427163 L19.8804422,11.2427163 C19.5605762,11.0582046 19.4509557,10.6495927 19.6356519,10.3300129 L20.6388908,8.5940722 C20.8235871,8.27449234 21.232641,8.16501469 21.552507,8.34949305 L21.5525404,8.34949305 C21.8724064,8.53400481 21.982027,8.94265009 21.7973307,9.26222995 L20.7940919,10.9981706 C20.6093956,11.3177505 20.2003417,11.4272281 19.8804757,11.2427163" id="Fill-61" fill="#FF6900"></path>
                    <path d="M22.2191793,13.5699332 C22.034483,13.2503533 22.1441036,12.841708 22.4639696,12.6572297 L24.2016462,11.6549597 C24.5215456,11.4704813 24.9305661,11.5799589 25.1152958,11.8995388 C25.2999586,12.2191187 25.1903715,12.6277305 24.8704721,12.8122423 L23.1327955,13.8144789 C22.8129295,13.9989907 22.4038421,13.889513 22.2191793,13.5699332" id="Fill-63" fill="#FF6900"></path>
                    <path d="M8.35920026,31.2054459 C8.03930083,31.0209676 7.92968026,30.6123223 8.11440998,30.2927424 L9.95164131,27.1136813 C10.1363376,26.7941348 10.5453581,26.6846572 10.8652575,26.8691355 C11.1851569,27.0536807 11.2947441,27.4622926 11.1100812,27.781839 L9.27281645,30.9609002 C9.08815362,31.2804801 8.67906625,31.3899577 8.35920026,31.2054459" id="Fill-65" fill="#425563"></path>
                    <path d="M7.02269213,16.7453763 C7.02269213,16.3763862 7.32212549,16.0772185 7.69151804,16.0772185 L9.69799577,16.0772185 C10.0673883,16.0772185 10.3668217,16.3763862 10.3668217,16.7453763 C10.3668217,17.1143998 10.0673883,17.413534 9.69799577,17.413534 L7.69151804,17.413534 C7.32212549,17.413534 7.02269213,17.1143998 7.02269213,16.7453763" id="Fill-67" fill="#FF6900"></path>
                    <path d="M13.5549777,22.2383981 C13.8748771,22.4228764 13.9844977,22.8315551 13.799768,23.1511016 L12.7965291,24.8870422 C12.6118663,25.2066221 12.2028123,25.3160997 11.8829129,25.1316214 C11.5630469,24.9471096 11.4534264,24.5384643 11.6381226,24.2188845 L12.6413615,22.4829438 C12.8260243,22.1633974 13.2351117,22.0539197 13.5549777,22.2383981" id="Fill-69" fill="#FF6900"></path>
                    <path d="M11.2162741,19.9111979 C11.4009369,20.2307444 11.2913498,20.6393897 10.9714838,20.8239014 L9.23380718,21.826138 C8.91390775,22.0106498 8.50485382,21.9011388 8.32015755,21.5815923 C8.13549471,21.2620125 8.24508184,20.8533672 8.56498127,20.6688554 L10.3026579,19.6666188 C10.6225239,19.482107 11.0316112,19.5916181 11.2162741,19.9111979" id="Fill-71" fill="#FF6900"></path>
                    <path d="M12.3879634,32.8622366 C12.0311448,32.7667569 11.819428,32.4003726 11.9150032,32.0439438 L12.8660402,28.4981643 C12.9616489,28.1417355 13.3283995,27.9301968 13.6851847,28.0257433 C14.0420033,28.1212231 14.2537202,28.4876074 14.158145,28.8440361 L13.2070745,32.3897823 C13.1114993,32.746211 12.7447486,32.9577498 12.3879634,32.8622366" id="Fill-73" fill="#425563"></path>
                </g>
            </g>
        </g>
    </g>
</svg>