<?xml version="1.0" encoding="UTF-8"?>
<svg width="23px" height="19px" viewBox="0 0 23 19" version="1.1" xmlns="http://www.w3.org/2000/svg" xmlns:xlink="http://www.w3.org/1999/xlink">
    <!-- Generator: Sketch 52.5 (67469) - http://www.bohemiancoding.com/sketch -->
    <title>video-player copy 2</title>
    <desc>Created with Sketch.</desc>
    <g id="Page-1" stroke="none" stroke-width="1" fill="none" fill-rule="evenodd" stroke-linecap="round" stroke-linejoin="round">
        <g id="video-player-copy-2" transform="translate(1.000000, 1.000000)" stroke="#FF6900" stroke-width="1.5">
            <path d="M8.703625,12.1808842 C8.43246035,12.317812 8.11048071,12.3031576 7.85259504,12.1421509 C7.59470936,11.9811443 7.43766184,11.696726 7.4375,11.3904 L7.4375,6.29381053 C7.43766184,5.98748454 7.59470936,5.70306623 7.85259504,5.54205958 C8.11048071,5.38105292 8.43246035,5.36639853 8.703625,5.50332632 L13.747125,8.05162105 C14.0431505,8.20154887 14.2300664,8.50749497 14.2300664,8.84210526 C14.2300664,9.17671555 14.0431505,9.48266166 13.747125,9.63258947 L8.703625,12.1808842 Z" id="Shape"></path>
            <path d="M4.4375,0.442105263 L16.5625,0.442105263 C18.771639,0.442105263 20.5625,2.23296626 20.5625,4.44210526 L20.5625,13.2421053 C20.5625,15.4512443 18.771639,17.2421053 16.5625,17.2421053 L4.4375,17.2421053 C2.228361,17.2421053 0.4375,15.4512443 0.4375,13.2421053 L0.4375,4.44210526 C0.4375,2.23296626 2.228361,0.442105263 4.4375,0.442105263 Z" id="Rectangle-path"></path>
        </g>
    </g>
</svg>