<?xml version="1.0" encoding="UTF-8"?>
<svg width="30px" height="30px" viewBox="0 0 21 21" version="1.1" xmlns="http://www.w3.org/2000/svg" xmlns:xlink="http://www.w3.org/1999/xlink">
    <!-- Generator: Sketch 51.3 (57544) - http://www.bohemiancoding.com/sketch -->
    <title>Group</title>
    <desc>Created with Sketch.</desc>
    <defs></defs>
    <g id="Page-1" stroke="none" stroke-width="1" fill="none" fill-rule="evenodd">
        <g id="Artboard-Copy-26" transform="translate(-677.000000, -329.000000)">
            <g id="Group" transform="translate(677.000000, 329.000000)">
                <path d="M10.5,17.85 C14.5592929,17.85 17.85,14.5592929 17.85,10.5 C17.85,6.44070709 14.5592929,3.15 10.5,3.15 C6.44070709,3.15 3.15,6.44070709 3.15,10.5 C3.15,14.5592929 6.44070709,17.85 10.5,17.85 Z M10.5,21 C4.70101013,21 0,16.2989899 0,10.5 C0,4.70101013 4.70101013,0 10.5,0 C16.2989899,0 21,4.70101013 21,10.5 C21,16.2989899 16.2989899,21 10.5,21 Z" id="Oval-5" fill="#b1bbc2" fill-rule="nonzero"></path>
                <path d="M11.025,1.575 C13.125,1.575 15.05,2.45 16.8,4.2 C18.55,5.95 19.425,7.875 19.425,9.975" id="Line" stroke="#ff6900" stroke-width="3" stroke-linecap="square"></path>
            </g>
        </g>
    </g>
</svg>